<?xml version="1.0" encoding="utf-8"?>
<!-- Generator: Adobe Illustrator 22.0.0, SVG Export Plug-In . SVG Version: 6.00 Build 0)  -->
<svg version="1.1" id="Icon_Set" xmlns="http://www.w3.org/2000/svg" xmlns:xlink="http://www.w3.org/1999/xlink" x="0px" y="0px"
	 viewBox="0 0 64 64" style="enable-background:new 0 0 64 64;" xml:space="preserve">
<style type="text/css">
	.st0{fill:#40C4FF;}
	.st1{fill:#263238;}
	.st2{fill:#FFD740;}
	.st3{fill:#FF5252;}
	.st4{fill:#4DB6AC;}
	.st5{fill:#FFFFFF;}
	.st6{fill:#4FC3F7;}
	.st7{fill:#37474F;}
</style>
<g>
	<g>
		<path class="st1" d="M4,32.5c-0.276,0-0.5-0.224-0.5-0.5C3.5,16.285,16.285,3.5,32,3.5c0.276,0,0.5,0.224,0.5,0.5
			S32.276,4.5,32,4.5C16.836,4.5,4.5,16.836,4.5,32C4.5,32.276,4.276,32.5,4,32.5z"/>
	</g>
	<g>
		<path class="st1" d="M35,4.5h-1c-0.276,0-0.5-0.224-0.5-0.5s0.224-0.5,0.5-0.5h1c0.276,0,0.5,0.224,0.5,0.5S35.276,4.5,35,4.5z"/>
	</g>
	<g>
		<path class="st1" d="M32,60.5c-0.276,0-0.5-0.224-0.5-0.5s0.224-0.5,0.5-0.5c15.163,0,27.5-12.336,27.5-27.5
			c0-0.276,0.224-0.5,0.5-0.5s0.5,0.224,0.5,0.5C60.5,47.715,47.715,60.5,32,60.5z"/>
	</g>
	<g>
		<path class="st1" d="M30,60.5h-1c-0.276,0-0.5-0.224-0.5-0.5s0.224-0.5,0.5-0.5h1c0.276,0,0.5,0.224,0.5,0.5S30.276,60.5,30,60.5z
			"/>
	</g>
	<g>
		<path class="st1" d="M32,56.5C18.491,56.5,7.5,45.509,7.5,32S18.491,7.5,32,7.5c13.51,0,24.5,10.991,24.5,24.5S45.51,56.5,32,56.5
			z M32,8.5C19.042,8.5,8.5,19.042,8.5,32S19.042,55.5,32,55.5S55.5,44.958,55.5,32S44.958,8.5,32,8.5z"/>
	</g>
	<g>
		<path class="st4" d="M32,14c-9.941,0-18,8.059-18,18s8.059,18,18,18s18-8.059,18-18S41.941,14,32,14z"/>
		<path class="st1" d="M32,50.5c-10.201,0-18.5-8.299-18.5-18.5S21.799,13.5,32,13.5S50.5,21.799,50.5,32S42.201,50.5,32,50.5z
			 M32,14.5c-9.649,0-17.5,7.851-17.5,17.5S22.351,49.5,32,49.5S49.5,41.649,49.5,32S41.649,14.5,32,14.5z"/>
	</g>
	<g>
		<path class="st1" d="M53,6.5h-4c-0.276,0-0.5-0.224-0.5-0.5s0.224-0.5,0.5-0.5h4c0.276,0,0.5,0.224,0.5,0.5S53.276,6.5,53,6.5z"/>
	</g>
	<g>
		<path class="st1" d="M51,8.5c-0.276,0-0.5-0.224-0.5-0.5V4c0-0.276,0.224-0.5,0.5-0.5s0.5,0.224,0.5,0.5v4
			C51.5,8.276,51.276,8.5,51,8.5z"/>
	</g>
	<g>
		<path class="st1" d="M60,13h-4c-0.276,0-0.5-0.224-0.5-0.5S55.724,12,56,12h4c0.276,0,0.5,0.224,0.5,0.5S60.276,13,60,13z"/>
	</g>
	<g>
		<path class="st1" d="M58,15c-0.276,0-0.5-0.224-0.5-0.5v-4c0-0.276,0.224-0.5,0.5-0.5s0.5,0.224,0.5,0.5v4
			C58.5,14.776,58.276,15,58,15z"/>
	</g>
	<g>
		<path class="st5" d="M28.995,39.864c-0.384,0-0.768-0.146-1.061-0.439l-6.718-6.717c-0.586-0.585-0.586-1.535,0-2.121
			s1.535-0.586,2.121,0l5.657,5.657l11.667-11.667c0.586-0.586,1.535-0.586,2.121,0c0.586,0.585,0.586,1.536,0,2.121L30.056,39.424
			C29.763,39.717,29.379,39.864,28.995,39.864z"/>
		<path class="st1" d="M28.995,40.364c-0.534,0-1.036-0.208-1.414-0.586l-6.718-6.717c-0.378-0.377-0.586-0.879-0.586-1.414
			c0-0.534,0.208-1.036,0.586-1.414c0.756-0.756,2.072-0.756,2.828,0l5.304,5.303l11.313-11.313c0.756-0.756,2.072-0.756,2.828,0
			c0.378,0.377,0.586,0.88,0.586,1.414s-0.208,1.037-0.586,1.414L30.409,39.778C30.031,40.156,29.529,40.364,28.995,40.364z
			 M22.277,30.646c-0.267,0-0.518,0.104-0.707,0.293s-0.293,0.44-0.293,0.707s0.104,0.518,0.293,0.707l6.718,6.717
			c0.378,0.378,1.036,0.378,1.414,0L42.43,26.343c0.188-0.189,0.293-0.44,0.293-0.707s-0.104-0.518-0.293-0.707
			c-0.391-0.39-1.023-0.39-1.414,0L29.349,36.596c-0.195,0.195-0.512,0.195-0.707,0l-5.657-5.657
			C22.795,30.75,22.544,30.646,22.277,30.646z"/>
	</g>
</g>
</svg>
